<svg width="223" height="72" viewBox="0 0 223 72" fill="none" xmlns="http://www.w3.org/2000/svg">
<path d="M34.4425 19.9001V25.3121H20.5779V70.882H13.9372V25.3121H0V19.9001H34.4425Z" fill="white"/>
<path d="M70.6373 32.0065C73.0684 33.3006 74.9803 35.2374 76.3671 37.8227C77.7538 40.408 78.4472 43.5546 78.4472 47.2595V70.8849H71.879V48.2105C71.879 44.2118 70.881 41.1525 68.8879 39.0296C66.8919 36.9067 64.1677 35.8481 60.7153 35.8481C57.263 35.8481 54.4285 36.9445 52.36 39.1401C50.2915 41.3357 49.2587 44.5288 49.2587 48.7223V70.8849H42.6179V16.7536H49.2587V36.5025C50.5729 34.4551 52.3832 32.8702 54.6954 31.7477C57.0048 30.6252 59.5955 30.0668 62.4676 30.0668C65.4848 30.0668 68.2061 30.7124 70.6402 32.0036L70.6373 32.0065Z" fill="white"/>
<path d="M100.957 31.9687C103.122 30.7008 105.762 30.0668 108.875 30.0668V36.9416H107.122C99.6808 36.9416 95.9586 40.9896 95.9586 49.0858V70.8849H89.3179V30.7997H95.9586V37.308C97.1278 35.0164 98.793 33.2367 100.957 31.9687Z" fill="white"/>
<path d="M116.754 22.9711C115.878 22.0928 115.44 21.0197 115.44 19.7518C115.44 18.4839 115.878 17.4108 116.754 16.5325C117.63 15.6543 118.698 15.2152 119.966 15.2152C121.234 15.2152 122.214 15.6543 123.067 16.5325C123.917 17.4108 124.344 18.4839 124.344 19.7518C124.344 21.0197 123.917 22.0928 123.067 22.9711C122.214 23.8493 121.181 24.2884 119.966 24.2884C118.75 24.2884 117.63 23.8493 116.754 22.9711ZM123.174 30.7997V70.8849H116.534V30.7997H123.174Z" fill="white"/>
<path d="M222.011 53.3287H190.049C190.293 57.2779 191.642 60.3634 194.099 62.5823C196.553 64.8012 199.536 65.9091 203.037 65.9091C205.907 65.9091 208.303 65.2403 210.224 63.8967C212.144 62.5561 213.493 60.7647 214.274 58.5197H221.425C220.354 62.3729 218.213 65.5049 215.005 67.9186C211.793 70.3324 207.804 71.5392 203.037 71.5392C199.243 71.5392 195.848 70.6871 192.857 68.9801C189.866 67.273 187.516 64.8477 185.816 61.7011C184.113 58.5546 183.263 54.9107 183.263 50.7667C183.263 46.6226 184.09 42.9904 185.744 39.8671C187.397 36.7467 189.721 34.3446 192.712 32.6638C195.703 30.9829 199.144 30.1395 203.037 30.1395C206.931 30.1395 210.189 30.9683 213.107 32.626C216.026 34.2836 218.277 36.5635 219.858 39.4658C221.439 42.3681 222.229 45.6455 222.229 49.3039C222.229 50.5718 222.156 51.9125 222.011 53.3258V53.3287ZM213.691 41.3677C212.571 39.5385 211.05 38.1484 209.13 37.1975C207.206 36.2465 205.08 35.7696 202.744 35.7696C199.388 35.7696 196.53 36.8427 194.172 38.9889C191.81 41.1351 190.461 44.11 190.122 47.9109H215.37C215.37 45.3751 214.81 43.194 213.693 41.3648L213.691 41.3677Z" fill="white"/>
<mask id="mask0_94_1163" style="mask-type:luminance" maskUnits="userSpaceOnUse" x="134" y="0" width="54" height="72">
<path d="M186.382 0L171.885 10.8181L176.469 12.7549L155.76 63.8822H155.528L142.273 30.9247H134.283L150.782 71.5421H160.507L183.281 15.3111L187.934 17.4486L186.382 0Z" fill="white"/>
</mask>
<g mask="url(#mask0_94_1163)">
<path d="M134.283 48.8706L144.338 71.5421H134.283V48.8706Z" fill="#ECD5B0"/>
<path d="M134.283 48.068L144.695 71.5421H144.338L134.283 48.8706V48.068Z" fill="#ECD5B0"/>
<path d="M134.283 47.2624L145.052 71.5421H144.695L134.283 48.068V47.2624Z" fill="#ECD5B0"/>
<path d="M134.283 46.4598L145.406 71.5421H145.052L134.283 47.2624V46.4598Z" fill="#ECD5B0"/>
<path d="M134.283 45.6571L145.763 71.5421H145.406L134.283 46.4598V45.6571Z" fill="#EBD4AF"/>
<path d="M134.283 44.8545L146.12 71.5421H145.763L134.283 45.6571V44.8545Z" fill="#EBD4AF"/>
<path d="M134.283 44.049L146.477 71.5421H146.12L134.283 44.8545V44.049Z" fill="#EBD4AF"/>
<path d="M134.283 43.2463L146.833 71.5421H146.477L134.283 44.049V43.2463Z" fill="#EAD3AE"/>
<path d="M134.283 42.4437L147.19 71.5421H146.833L134.283 43.2463V42.4437Z" fill="#EAD3AE"/>
<path d="M134.283 41.6382L147.544 71.5421H147.19L134.283 42.4437V41.6382Z" fill="#EAD3AE"/>
<path d="M134.283 40.8355L147.901 71.5421H147.544L134.283 41.6381V40.8355Z" fill="#E9D2AD"/>
<path d="M134.283 40.0329L148.258 71.5421H147.901L134.283 40.8355V40.0329Z" fill="#E9D2AD"/>
<path d="M134.283 39.2302L148.615 71.5421H148.258L134.283 40.0329V39.2302Z" fill="#E8D1AC"/>
<path d="M134.283 38.4247L148.972 71.5421H148.615L134.283 39.2302V38.4247Z" fill="#E8D1AC"/>
<path d="M134.283 37.6221L149.328 71.5421H148.972L134.283 38.4247V37.6221Z" fill="#E7D0AB"/>
<path d="M134.283 36.8194L149.682 71.5421H149.328L134.283 37.6221V36.8194Z" fill="#E7D0AB"/>
<path d="M134.283 36.0139L150.039 71.5421H149.682L134.283 36.8194V36.0139Z" fill="#E6CFAA"/>
<path d="M134.283 35.2113L150.396 71.5421H150.039L134.283 36.0139V35.2113Z" fill="#E6CFAA"/>
<path d="M134.283 34.4086L150.753 71.5421H150.396L134.283 35.2113V34.4086Z" fill="#E5CEA9"/>
<path d="M134.283 33.606L151.11 71.5421H150.753L134.283 34.4086V33.606Z" fill="#E4CDA8"/>
<path d="M134.283 32.8004L151.467 71.5421H151.11L134.283 33.606V32.8004Z" fill="#E4CDA8"/>
<path d="M134.283 31.9978L151.82 71.5421H151.467L134.283 32.8004V31.9978Z" fill="#E3CCA7"/>
<path d="M134.283 31.1952L152.177 71.5421H151.82L134.283 31.9978V31.1952Z" fill="#E2CBA6"/>
<path d="M134.283 30.3896L152.534 71.5421H152.177L134.283 31.1952V30.3896Z" fill="#E2CBA6"/>
<path d="M134.283 29.587L152.891 71.5421H152.534L134.283 30.3896V29.587Z" fill="#E1CAA5"/>
<path d="M134.283 28.7844L153.248 71.5421H152.891L134.283 29.587V28.7844Z" fill="#E0C9A4"/>
<path d="M134.283 27.9817L153.605 71.5421H153.248L134.283 28.7844V27.9817Z" fill="#E0C9A4"/>
<path d="M134.283 27.1762L153.959 71.5421H153.605L134.283 27.9817V27.1762Z" fill="#DFC8A3"/>
<path d="M134.283 26.3735L154.315 71.5421H153.959L134.283 27.1762V26.3735Z" fill="#DEC7A2"/>
<path d="M134.283 25.5709L154.672 71.5421H154.315L134.283 26.3735V25.5709Z" fill="#DDC6A1"/>
<path d="M134.283 24.7654L155.029 71.5421H154.672L134.283 25.5709V24.7654Z" fill="#DDC6A1"/>
<path d="M134.283 23.9627L155.386 71.5421H155.029L134.283 24.7654V23.9627Z" fill="#DCC5A0"/>
<path d="M134.283 23.1601L155.74 71.5421H155.386L134.283 23.9627V23.1601Z" fill="#DBC49F"/>
<path d="M134.283 22.5814L134.367 22.5436L156.097 71.5421H155.74L134.283 23.1601V22.5814Z" fill="#DAC39E"/>
<path d="M134.367 22.5436L134.663 22.4098L156.454 71.5421H156.097L134.367 22.5436Z" fill="#D9C39E"/>
<path d="M134.663 22.4098L134.962 22.2789L156.811 71.5421H156.454L134.663 22.4098Z" fill="#D9C29D"/>
<path d="M134.962 22.2789L135.261 22.1452L157.167 71.5421H156.811L134.962 22.2789Z" fill="#D8C19C"/>
<path d="M135.261 22.1452L135.557 22.0114L157.524 71.5421H157.167L135.261 22.1452Z" fill="#D7C09B"/>
<path d="M135.557 22.0114L135.855 21.8805L157.878 71.5421H157.524L135.557 22.0114Z" fill="#D6BF9A"/>
<path d="M135.855 21.8805L136.151 21.7468L158.235 71.5421H157.878L135.855 21.8805Z" fill="#D5BE99"/>
<path d="M136.151 21.7468L136.45 21.6159L158.592 71.5421H158.235L136.151 21.7468Z" fill="#D4BE99"/>
<path d="M136.45 21.6159L136.746 21.4821L158.949 71.5421H158.592L136.45 21.6159Z" fill="#D3BD98"/>
<path d="M136.746 21.4821L137.045 21.3513L159.305 71.5421H158.949L136.746 21.4821Z" fill="#D3BC97"/>
<path d="M137.045 21.3513L137.341 21.2175L159.662 71.5421H159.305L137.045 21.3513Z" fill="#D2BB96"/>
<path d="M137.341 21.2175L137.64 21.0837L160.016 71.5421H159.662L137.341 21.2175Z" fill="#D1BA95"/>
<path d="M137.64 21.0837L137.938 20.9529L160.373 71.5421H160.016L137.64 21.0837Z" fill="#D0B994"/>
<path d="M137.938 20.9529L138.234 20.8191L160.73 71.5421H160.373L137.938 20.9529Z" fill="#CFB893"/>
<path d="M138.234 20.8191L138.533 20.6882L161.087 71.5421H160.73L138.234 20.8191Z" fill="#CEB792"/>
<path d="M138.533 20.6882L138.829 20.5544L161.444 71.5421H161.087L138.533 20.6882Z" fill="#CDB691"/>
<path d="M138.829 20.5544L139.128 20.4207L161.8 71.5421H161.444L138.829 20.5544Z" fill="#CCB590"/>
<path d="M139.128 20.4207L139.424 20.2898L162.12 71.4607L161.934 71.5421H161.8L139.128 20.4207Z" fill="#CBB48F"/>
<path d="M139.722 20.1535L139.425 20.2859L162.12 71.4548L162.417 71.3225L139.722 20.1535Z" fill="#CAB38E"/>
<path d="M140.016 20.0184L139.719 20.1507L162.415 71.3197L162.712 71.1873L140.016 20.0184Z" fill="#C9B28D"/>
<path d="M140.318 19.8876L140.021 20.02L162.716 71.1889L163.013 71.0566L140.318 19.8876Z" fill="#C8B18C"/>
<path d="M140.612 19.7554L140.315 19.8877L163.011 71.0567L163.308 70.9243L140.612 19.7554Z" fill="#C7B08B"/>
<path d="M140.909 19.622L140.612 19.7543L163.308 70.9233L163.605 70.7909L140.909 19.622Z" fill="#C6AF8A"/>
<path d="M141.208 19.4895L140.911 19.6218L163.606 70.7908L163.903 70.6584L141.208 19.4895Z" fill="#C5AE89"/>
<path d="M141.505 19.3561L141.208 19.4884L163.903 70.6574L164.2 70.525L141.505 19.3561Z" fill="#C4AD88"/>
<path d="M141.803 19.2253L141.506 19.3576L164.202 70.5266L164.499 70.3943L141.803 19.2253Z" fill="#C3AC87"/>
<path d="M142.101 19.0931L141.804 19.2254L164.499 70.3944L164.796 70.262L142.101 19.0931Z" fill="#C2AB86"/>
<path d="M142.398 18.9568L142.101 19.0891L164.797 70.258L165.093 70.1257L142.398 18.9568Z" fill="#C1AA85"/>
<path d="M142.694 18.8272L142.397 18.9595L165.092 70.1285L165.389 69.9961L142.694 18.8272Z" fill="#C0A984"/>
<path d="M142.994 18.6938L142.697 18.8261L165.392 69.995L165.689 69.8627L142.994 18.6938Z" fill="#BFA883"/>
<path d="M143.289 18.5613L142.992 18.6936L165.688 69.8626L165.985 69.7302L143.289 18.5613Z" fill="#BEA782"/>
<path d="M143.589 18.4279L143.292 18.5602L165.988 69.7291L166.285 69.5968L143.589 18.4279Z" fill="#BCA681"/>
<path d="M143.887 18.2945L143.59 18.4268L166.285 69.5957L166.582 69.4634L143.887 18.2945Z" fill="#BBA580"/>
<path d="M144.182 18.1649L143.885 18.2972L166.581 69.4661L166.878 69.3338L144.182 18.1649Z" fill="#BAA47F"/>
<path d="M144.482 18.0286L144.186 18.1609L166.881 69.3298L167.178 69.1975L144.482 18.0286Z" fill="#B9A37E"/>
<path d="M144.778 17.899L144.481 18.0313L167.177 69.2002L167.474 69.0679L144.778 17.899Z" fill="#B8A17C"/>
<path d="M145.075 17.7656L144.778 17.8979L167.474 69.0668L167.771 68.9345L145.075 17.7656Z" fill="#B7A07B"/>
<path d="M145.373 17.6333L145.076 17.7656L167.771 68.9346L168.068 68.8023L145.373 17.6333Z" fill="#B69F7A"/>
<path d="M145.671 17.4997L145.374 17.632L168.069 68.8009L168.366 68.6686L145.671 17.4997Z" fill="#B59E79"/>
<path d="M145.965 17.3674L145.668 17.4997L168.364 68.6687L168.661 68.5364L145.965 17.3674Z" fill="#B39D78"/>
<path d="M146.267 17.2367L145.97 17.369L168.665 68.5379L168.962 68.4056L146.267 17.2367Z" fill="#B29C77"/>
<path d="M146.564 17.1003L146.267 17.2327L168.962 68.4016L169.259 68.2693L146.564 17.1003Z" fill="#B19B76"/>
<path d="M146.863 16.9708L146.566 17.1031L169.261 68.272L169.558 68.1397L146.863 16.9708Z" fill="#B09974"/>
<path d="M147.16 16.8374L146.863 16.9697L169.558 68.1386L169.855 68.0063L147.16 16.8374Z" fill="#AF9873"/>
<path d="M147.454 16.7051L147.157 16.8374L169.853 68.0064L170.15 67.8741L147.454 16.7051Z" fill="#AD9772"/>
<path d="M147.755 16.5714L147.458 16.7038L170.154 67.8727L170.451 67.7404L147.755 16.5714Z" fill="#AC9671"/>
<path d="M148.05 16.4392L147.753 16.5715L170.448 67.7405L170.745 67.6082L148.05 16.4392Z" fill="#AB9570"/>
<path d="M148.348 16.3085L148.051 16.4408L170.747 67.6097L171.044 67.4774L148.348 16.3085Z" fill="#AA936E"/>
<path d="M148.646 16.1762L148.349 16.3085L171.044 67.4775L171.341 67.3452L148.646 16.1762Z" fill="#A9926D"/>
<path d="M148.943 16.0399L148.646 16.1722L171.341 67.3412L171.638 67.2088L148.943 16.0399Z" fill="#A7916C"/>
<path d="M149.241 15.9091L148.944 16.0415L171.64 67.2104L171.937 67.0781L149.241 15.9091Z" fill="#A6906B"/>
<path d="M149.539 15.7769L149.242 15.9092L171.937 67.0782L172.234 66.9458L149.539 15.7769Z" fill="#A58F6A"/>
<path d="M149.837 15.6461L149.54 15.7785L172.236 66.9474L172.532 66.8151L149.837 15.6461Z" fill="#A48D68"/>
<path d="M150.134 15.511L149.837 15.6433L172.533 66.8123L172.83 66.6799L150.134 15.511Z" fill="#A28C67"/>
<path d="M150.431 15.3776L150.135 15.5099L172.83 66.6788L173.127 66.5465L150.431 15.3776Z" fill="#A18B66"/>
<path d="M150.727 15.248L150.43 15.3803L173.126 66.5493L173.423 66.4169L150.727 15.248Z" fill="#A08A65"/>
<path d="M151.027 15.1117L150.73 15.244L173.426 66.4129L173.723 66.2806L151.027 15.1117Z" fill="#9F8863"/>
<path d="M151.323 14.9821L151.026 15.1144L173.722 66.2834L174.019 66.151L151.323 14.9821Z" fill="#9D8762"/>
<path d="M151.62 14.8487L151.323 14.981L174.019 66.15L174.316 66.0176L151.62 14.8487Z" fill="#9C8661"/>
<path d="M151.92 14.7153L151.623 14.8476L174.319 66.0165L174.616 65.8842L151.92 14.7153Z" fill="#9B845F"/>
<path d="M152.216 14.5828L151.919 14.7151L174.614 65.8841L174.911 65.7517L152.216 14.5828Z" fill="#99835E"/>
<path d="M152.516 14.4494L152.219 14.5817L174.914 65.7506L175.211 65.6183L152.516 14.4494Z" fill="#98825D"/>
<path d="M152.812 14.3198L152.515 14.4521L175.21 65.6211L175.507 65.4887L152.812 14.3198Z" fill="#97815C"/>
<path d="M153.109 14.1864L152.812 14.3187L175.507 65.4876L175.804 65.3553L153.109 14.1864Z" fill="#967F5A"/>
<path d="M153.406 14.0512L153.109 14.1836L175.805 65.3525L176.102 65.2202L153.406 14.0512Z" fill="#947E59"/>
<path d="M153.705 13.9205L153.408 14.0528L176.103 65.2217L176.4 65.0894L153.705 13.9205Z" fill="#937D58"/>
<path d="M153.999 13.7882L153.702 13.9206L176.398 65.0895L176.695 64.9572L153.999 13.7882Z" fill="#927B56"/>
<path d="M154.3 13.6546L154.003 13.7869L176.699 64.9558L176.996 64.8235L154.3 13.6546Z" fill="#907A55"/>
<path d="M154.597 13.5212L154.301 13.6535L176.996 64.8224L177.293 64.6901L154.597 13.5212Z" fill="#8F7954"/>
<path d="M154.892 13.3889L154.595 13.5212L177.29 64.6902L177.587 64.5579L154.892 13.3889Z" fill="#8D7752"/>
<path d="M155.193 13.2582L154.896 13.3905L177.592 64.5594L177.889 64.4271L155.193 13.2582Z" fill="#8C7651"/>
<path d="M155.488 13.123L155.191 13.2553L177.886 64.4243L178.183 64.292L155.488 13.123Z" fill="#8B7550"/>
<path d="M155.789 12.9923L155.492 13.1246L178.187 64.2935L178.484 64.1612L155.789 12.9923Z" fill="#89734E"/>
<path d="M156.084 12.86L155.787 12.9923L178.482 64.1613L178.779 64.029L156.084 12.86Z" fill="#88724D"/>
<path d="M156.382 12.7293L156.085 12.8616L178.78 64.0305L179.077 63.8982L156.382 12.7293Z" fill="#87704B"/>
<path d="M156.679 12.5941L156.382 12.7264L179.078 63.8954L179.375 63.7631L156.679 12.5941Z" fill="#856F4A"/>
<path d="M156.976 12.4607L156.679 12.593L179.375 63.762L179.672 63.6297L156.976 12.4607Z" fill="#846E49"/>
<path d="M157.275 12.3299L156.978 12.4623L179.673 63.6312L179.97 63.4989L157.275 12.3299Z" fill="#826C47"/>
<path d="M157.572 12.1977L157.275 12.33L179.971 63.499L180.268 63.3667L157.572 12.1977Z" fill="#816B46"/>
<path d="M157.87 12.064L157.573 12.1964L180.269 63.3653L180.566 63.233L157.87 12.064Z" fill="#806944"/>
<path d="M158.165 11.9318L157.868 12.0641L180.564 63.2331L180.861 63.1008L158.165 11.9318Z" fill="#7E6843"/>
<path d="M158.465 11.7984L158.168 11.9307L180.864 63.0997L181.161 62.9673L158.465 11.7984Z" fill="#7D6742"/>
<path d="M158.761 11.6659L158.464 11.7982L181.159 62.9672L181.456 62.8349L158.761 11.6659Z" fill="#7B6540"/>
<path d="M159.061 11.5325L158.764 11.6648L181.459 62.8338L181.756 62.7014L159.061 11.5325Z" fill="#7A643F"/>
<path d="M159.359 11.4017L159.062 11.534L181.758 62.703L182.055 62.5707L159.359 11.4017Z" fill="#78623D"/>
<path d="M159.654 11.2695L159.357 11.4018L182.052 62.5708L182.349 62.4384L159.654 11.2695Z" fill="#77613C"/>
<path d="M159.954 11.1332L159.657 11.2655L182.352 62.4344L182.649 62.3021L159.954 11.1332Z" fill="#755F3A"/>
<path d="M160.249 11.0036L159.952 11.1359L182.648 62.3049L182.945 62.1725L160.249 11.0036Z" fill="#745E39"/>
<path d="M160.251 11.0072L184.955 0H187.934V59.9563L182.947 62.1781L160.251 11.0072Z" fill="#745E39"/>
</g>
</svg>
